HIERARCHY
ROOT Hips
{
	OFFSET 0.00000 0.00000 0.00000
	CHANNELS 6 Xposition Yposition Zposition Zrotation Yrotation Xrotation 
	JOINT LHipJoint
	{
		OFFSET 0 0 0
		CHANNELS 3 Zrotation Yrotation Xrotation
		JOINT LeftUpLeg
		{
			OFFSET 1.53139 -1.83434 0.76626
			CHANNELS 3 Zrotation Yrotation Xrotation
			JOINT LeftLeg
			{
				OFFSET 2.56112 -7.03663 0.00000
				CHANNELS 3 Zrotation Yrotation Xrotation
				JOINT LeftFoot
				{
					OFFSET 2.59983 -7.14299 0.00000
					CHANNELS 3 Zrotation Yrotation Xrotation
					JOINT LeftToeBase
					{
						OFFSET 0.13742 -0.37757 2.00054
						CHANNELS 3 Zrotation Yrotation Xrotation
						End Site
						{
							OFFSET 0.00000 -0.00000 1.02897
						}
					}
				}
			}
		}
	}
	JOINT RHipJoint
	{
		OFFSET 0 0 0
		CHANNELS 3 Zrotation Yrotation Xrotation
		JOINT RightUpLeg
		{
			OFFSET -1.40122 -1.83435 0.76627
			CHANNELS 3 Zrotation Yrotation Xrotation
			JOINT RightLeg
			{
				OFFSET -2.54052 -6.98003 0.00000
				CHANNELS 3 Zrotation Yrotation Xrotation
				JOINT RightFoot
				{
					OFFSET -2.63179 -7.23079 0.00000
					CHANNELS 3 Zrotation Yrotation Xrotation
					JOINT RightToeBase
					{
						OFFSET -0.24131 -0.66299 2.03908
						CHANNELS 3 Zrotation Yrotation Xrotation
						End Site
						{
							OFFSET -0.00000 -0.00000 1.07391
						}
					}
				}
			}
		}
	}
	JOINT LowerBack
	{
		OFFSET 0 0 0
		CHANNELS 3 Zrotation Yrotation Xrotation
		JOINT Spine
		{
			OFFSET 0.01174 2.10302 -0.29778
			CHANNELS 3 Zrotation Yrotation Xrotation
			JOINT Spine1
			{
				OFFSET 0.00772 2.13227 -0.01247
				CHANNELS 3 Zrotation Yrotation Xrotation
				JOINT Neck
				{
					OFFSET 0 0 0
					CHANNELS 3 Zrotation Yrotation Xrotation
					JOINT Neck1
					{
						OFFSET -0.09219 1.60848 0.31481
						CHANNELS 3 Zrotation Yrotation Xrotation
						JOINT Head
						{
							OFFSET 0.13974 1.65456 -0.31134
							CHANNELS 3 Zrotation Yrotation Xrotation
							End Site
							{
								OFFSET 0.04742 1.69515 -0.14578
							}
						}
					}
				}
				JOINT LeftShoulder
				{
					OFFSET 0 0 0
					CHANNELS 3 Zrotation Yrotation Xrotation
					JOINT LeftArm
					{
						OFFSET 3.24909 1.02882 -0.23993
						CHANNELS 3 Zrotation Yrotation Xrotation
						JOINT LeftForeArm
						{
							OFFSET 5.32955 -0.00000 -0.00000
							CHANNELS 3 Zrotation Yrotation Xrotation
							JOINT LeftHand
							{
								OFFSET 3.69232 -0.00000 -0.00000
								CHANNELS 3 Zrotation Yrotation Xrotation
								JOINT LeftFingerBase
								{
									OFFSET 0 0 0
									CHANNELS 3 Zrotation Yrotation Xrotation
									JOINT LeftHandIndex1
									{
										OFFSET 0.53660 -0.00000 -0.00000
										CHANNELS 3 Zrotation Yrotation Xrotation
										End Site
										{
											OFFSET 0.43262 -0.00000 -0.00000
										}
									}
								}
								JOINT LThumb
								{
									OFFSET 0 0 0
									CHANNELS 3 Zrotation Yrotation Xrotation
									End Site
									{
										OFFSET 0.43922 -0.00000 0.43922
									}
								}
							}
						}
					}
				}
				JOINT RightShoulder
				{
					OFFSET 0 0 0
					CHANNELS 3 Zrotation Yrotation Xrotation
					JOINT RightArm
					{
						OFFSET -3.21387 0.93002 -0.34594
						CHANNELS 3 Zrotation Yrotation Xrotation
						JOINT RightForeArm
						{
							OFFSET -5.23431 -0.00000 0.00000
							CHANNELS 3 Zrotation Yrotation Xrotation
							JOINT RightHand
							{
								OFFSET -3.55301 -0.00000 -0.00000
								CHANNELS 3 Zrotation Yrotation Xrotation
								JOINT RightFingerBase
								{
									OFFSET 0 0 0
									CHANNELS 3 Zrotation Yrotation Xrotation
									JOINT RightHandIndex1
									{
										OFFSET -0.77252 -0.00000 -0.00000
										CHANNELS 3 Zrotation Yrotation Xrotation
										End Site
										{
											OFFSET -0.62283 -0.00000 -0.00000
										}
									}
								}
								JOINT RThumb
								{
									OFFSET 0 0 0
									CHANNELS 3 Zrotation Yrotation Xrotation
									End Site
									{
										OFFSET -0.63234 -0.00000 0.63234
									}
								}
							}
						}
					}
				}
			}
		}
	}
}
MOTION
Frames: 15
Frame Time: .0083333
15.5951 17.8078 -10.934 0 0 0 0 0 0 -21 0 0 0 0 0 0 0 0 0 0 0 0 0 0 21 0 0 0 0 0 0 0 0 0 0 0 0 0 0 0 0 0 0 0 0 0 0 -16 0 0 21 0 0 11 0 0 0 -8 0 0 0 0 0 0 0 0 0 0 0 0 0 0 0 0 0 0 0 0 8 0 0 0 0 0 0 0 0 0 0 0 0 0 0 0 0 0
15.5951 17.8078 -10.9340 1.9961 -51.0210 1.8829 0.0000 0.0000 0.0000 -23.0395 -6.9056 -6.4425 2.0118 8.8907 25.4539 0.8214 -0.9108 -16.8429 0.0072 -0.5467 -1.5022 0.0000 0.0000 0.0000 22.5082 4.5044 -10.5607 -3.2369 -11.0690 32.5129 -1.3691 1.3220 -21.7344 -0.0001 0.0584 -0.1604 -0.7756 -0.1817 6.8050 1.1340 -0.2584 -0.6943 1.6386 -0.0957 -4.5297 -9.5165 -3.3788 -21.4736 6.5718 -3.5527 25.6632 3.4998 -1.7031 12.3582 -0.0000 0.0000 0.0000 -85.6948 6.1226 25.8723 18.7343 -29.0872 -4.9010 -0.0000 -0.0000 4.6656 17.4086 23.5564 7.1425 -7.1250 0.0000 -0.0000 -12.4289 54.1055 -2.8149 -0.0000 0.0000 0.0000 83.7227 -3.5761 23.8447 -16.8372 26.6426 -4.0140 0.0000 0.0000 6.3861 -16.5283 10.2957 -3.0360 7.1250 -0.0000 -0.0000 7.4413 -19.2981 4.6027
15.5961 17.8056 -10.9289 1.9098 -50.7242 1.8862 0.0000 0.0000 0.0000 -22.9940 -7.1276 -6.3405 2.0226 8.9130 25.5236 0.8235 -0.9899 -16.8418 0.0060 -0.5015 -1.3780 0.0000 0.0000 0.0000 22.5862 4.2784 -10.5170 -3.2293 -11.0573 32.4734 -1.3615 1.2232 -21.6995 -0.0001 0.0755 -0.2075 -0.6445 -0.3091 6.8897 1.1686 -0.4164 -0.6780 1.6181 -0.1768 -4.5558 -9.4151 -3.3895 -21.4643 6.4149 -3.5545 25.6080 3.4199 -1.7134 12.3295 -0.0000 0.0000 0.0000 -85.7320 6.2097 26.0073 18.6930 -29.0354 -4.8809 -0.0000 -0.0000 4.5518 17.8901 23.4994 7.3344 -7.1250 0.0000 -0.0000 -11.9172 54.1397 -2.7064 -0.0000 0.0000 0.0000 83.6229 -3.7571 24.0500 -16.8965 26.7212 -4.0407 0.0000 0.0000 6.2087 -16.4354 10.3491 -3.0335 7.1250 -0.0000 -0.0000 7.5066 -19.2488 4.6521
15.5940 17.8065 -10.9264 1.8911 -50.6656 1.8873 0.0000 0.0000 0.0000 -22.9701 -7.1052 -6.2998 2.0137 8.8946 25.4662 0.8168 -1.0721 -16.7487 0.0065 -0.5205 -1.4302 0.0000 0.0000 0.0000 22.6104 4.2687 -10.5187 -3.2374 -11.0698 32.5158 -1.3593 1.2130 -21.6846 -0.0001 0.0784 -0.2153 -0.6482 -0.3413 6.9412 1.2072 -0.4580 -0.6808 1.6654 -0.1967 -4.5862 -9.3214 -3.4211 -21.4820 6.2332 -3.5752 25.5917 3.3296 -1.7366 12.3232 0.0000 0.0000 0.0000 -85.7811 6.3011 26.1232 18.6628 -28.9975 -4.8663 -0.0000 -0.0000 4.5300 17.4103 23.4288 7.1071 -7.1250 0.0000 -0.0000 -12.3701 53.9787 -2.7627 0.0000 0.0000 0.0000 83.5190 -3.9526 24.1983 -16.9656 26.8124 -4.0718 0.0000 0.0000 6.0512 -16.3736 10.3429 -3.0196 7.1250 -0.0000 -0.0000 7.5504 -19.2591 4.6780
15.5878 17.8069 -10.9247 2.0661 -50.8362 1.7187 0.0000 0.0000 0.0000 -23.1016 -7.0323 -6.2281 2.0088 8.8843 25.4341 0.8179 -0.9783 -16.7864 0.0067 -0.5272 -1.4485 0.0000 0.0000 0.0000 22.4808 4.3427 -10.4508 -3.2446 -11.0809 32.5533 -1.3630 1.3498 -21.6768 -0.0001 -0.0612 0.1683 -0.8400 -0.2710 6.9595 1.2062 -0.3807 -0.6513 1.7639 -0.1539 -4.5673 -9.3238 -3.4416 -21.4190 6.2063 -3.5987 25.5277 3.3141 -1.7507 12.2873 0.0000 0.0000 0.0000 -85.8317 6.3716 26.1993 18.6362 -28.9641 -4.8534 -0.0000 -0.0000 4.6192 16.5261 23.7333 6.8099 -7.1250 0.0000 -0.0000 -13.3985 54.1152 -3.0436 0.0000 0.0000 0.0000 83.5422 -3.9824 23.9472 -16.8996 26.7253 -4.0421 0.0000 0.0000 6.1468 -16.3902 10.2135 -2.9855 7.1250 -0.0000 -0.0000 7.5400 -19.3915 4.6490
15.5819 17.8063 -10.9229 2.2740 -50.9545 1.5458 0.0000 0.0000 0.0000 -23.2514 -6.9479 -6.1800 1.9992 8.8644 25.3719 0.8151 -0.8769 -16.7867 0.0058 -0.4937 -1.3565 0.0000 0.0000 0.0000 22.3346 4.4517 -10.4123 -3.2561 -11.0985 32.6128 -1.3714 1.4308 -21.7234 -0.0018 -0.2709 0.7442 -1.0063 -0.2128 6.9492 1.1699 -0.3188 -0.6255 1.8130 -0.1199 -4.5362 -9.3141 -3.4723 -21.3937 6.2195 -3.6502 25.4792 3.3077 -1.7704 12.2680 -0.0000 -0.0000 0.0000 -85.8270 6.4846 26.3081 18.6447 -28.9748 -4.8575 -0.0000 -0.0000 4.6897 16.2828 23.8671 6.7403 -7.1250 0.0000 -0.0000 -13.7056 54.2019 -3.1446 -0.0000 -0.0000 0.0000 83.5873 -4.0854 23.7349 -16.9066 26.7344 -4.0452 0.0000 0.0000 6.1588 -16.2659 10.1291 -2.9375 7.1250 -0.0000 -0.0000 7.6291 -19.4858 4.6887
15.5774 17.8062 -10.9232 2.3811 -51.0094 1.5031 0.0000 0.0000 0.0000 -23.3255 -6.8943 -6.2083 1.9921 8.8496 25.3260 0.7921 -0.7727 -16.5741 0.0092 -0.6188 -1.7005 0.0000 0.0000 0.0000 22.2726 4.5555 -10.4396 -3.2654 -11.1128 32.6612 -1.3806 1.4433 -21.7944 -0.0032 -0.3636 0.9990 -1.0507 -0.1713 6.9196 1.1036 -0.2697 -0.6315 1.7636 -0.0952 -4.5278 -9.1957 -3.4855 -21.4372 6.1809 -3.6983 25.5296 3.2656 -1.7853 12.2975 -0.0000 0.0000 0.0000 -85.7350 6.5873 26.4346 18.6823 -29.0219 -4.8757 -0.0000 -0.0000 4.5684 16.2147 23.8434 6.7046 -7.1250 0.0000 -0.0000 -13.7629 54.1656 -3.1458 -0.0000 0.0000 0.0000 83.7050 -4.1963 23.5932 -16.8801 26.6995 -4.0333 0.0000 0.0000 6.0383 -16.3398 10.2891 -2.9976 7.1250 -0.0000 -0.0000 7.5748 -19.3167 4.6836
15.5728 17.8061 -10.9264 2.6121 -51.0630 1.3527 0.0000 0.0000 0.0000 -23.4782 -6.8758 -6.2245 1.9891 8.8434 25.3066 0.7729 -0.6897 -16.3934 0.0105 -0.6607 -1.8157 0.0000 0.0000 0.0000 22.1455 4.6943 -10.4239 -3.2699 -11.1197 32.6847 -1.3824 1.3471 -21.8351 -0.0040 -0.4089 1.1236 -1.2223 -0.1569 6.9031 1.0430 -0.2675 -0.5999 1.7967 -0.0912 -4.4852 -9.1652 -3.4894 -21.5637 6.2310 -3.7228 25.6350 3.2779 -1.7861 12.3669 -0.0000 0.0000 0.0000 -85.7998 6.6377 26.2095 18.7000 -29.0442 -4.8843 -0.0000 -0.0000 4.6818 16.4671 23.7630 6.7924 -7.1250 0.0000 -0.0000 -13.4715 54.1336 -3.0667 -0.0000 0.0000 0.0000 83.4594 -4.8776 24.9939 -17.5404 27.5647 -4.3345 0.0000 0.0000 4.4795 -16.4969 9.8463 -2.8992 7.1250 -0.0000 -0.0000 7.4684 -19.7634 4.5415
15.5675 17.8062 -10.9274 2.6550 -51.1373 1.3429 0.0000 0.0000 0.0000 -23.4964 -6.8859 -6.2432 1.9915 8.8484 25.3223 0.7755 -0.6518 -16.4331 0.0063 -0.5115 -1.4056 0.0000 0.0000 0.0000 22.1449 4.7929 -10.3945 -3.2670 -11.1152 32.6694 -1.3790 1.2286 -21.8402 -0.0018 -0.2734 0.7511 -1.3218 -0.1689 6.9061 1.0710 -0.2907 -0.5910 1.8843 -0.1001 -4.4762 -9.2164 -3.4541 -21.5936 6.2467 -3.6587 25.6921 3.3050 -1.7613 12.3909 -0.0000 -0.0000 0.0000 -86.0399 6.8229 25.7895 18.7521 -29.1095 -4.9097 -0.0000 -0.0000 5.0643 17.1785 23.5171 7.0322 -7.1250 0.0000 -0.0000 -12.6430 54.0231 -2.8390 -0.0000 -0.0000 0.0000 83.3158 -5.1529 25.5185 -17.7371 27.8192 -4.4259 0.0000 0.0000 4.1008 -16.4487 9.6011 -2.8191 7.1250 -0.0000 -0.0000 7.5059 -20.0190 4.5215
15.5619 17.8102 -10.9264 2.6175 -51.2006 1.3800 0.0000 0.0000 0.0000 -23.4672 -6.8439 -6.2505 1.9929 8.8512 25.3311 0.7803 -0.5979 -16.5009 0.0078 -0.5711 -1.5692 0.0000 0.0000 0.0000 22.1948 4.9731 -10.3063 -3.2625 -11.1084 32.6462 -1.3737 1.1881 -21.8090 -0.0040 -0.4100 1.1266 -1.3441 -0.1622 6.9418 1.1075 -0.2822 -0.6234 1.9344 -0.0941 -4.5302 -9.3146 -3.4280 -21.5088 6.3070 -3.6146 25.7038 3.3530 -1.7456 12.3779 -0.0000 0.0000 0.0000 -86.1767 7.0479 25.7795 18.8001 -29.1695 -4.9330 -0.0000 -0.0000 5.1620 18.1235 23.4806 7.4301 -7.1250 0.0000 -0.0000 -11.6726 54.1651 -2.6569 -0.0000 0.0000 0.0000 83.3173 -5.3342 25.4282 -17.7252 27.8039 -4.4203 0.0000 0.0000 4.1993 -16.1834 9.6840 -2.7948 7.1250 -0.0000 -0.0000 7.6937 -19.9490 4.6488
15.5578 17.8126 -10.9253 2.5415 -51.2301 1.4497 0.0000 0.0000 0.0000 -23.4092 -6.7302 -6.2780 1.9890 8.8431 25.3057 0.7769 -0.5859 -16.4681 0.0211 -0.9387 -2.5802 0.0000 0.0000 0.0000 22.2616 5.0791 -10.2648 -3.2645 -11.1114 32.6564 -1.3724 1.2072 -21.7931 -0.0094 -0.6270 1.7229 -1.2926 -0.1478 6.9312 1.1037 -0.2588 -0.6162 1.8987 -0.0840 -4.5180 -9.3248 -3.4423 -21.4074 6.3484 -3.6518 25.6416 3.3629 -1.7584 12.3375 -0.0000 -0.0000 0.0000 -86.1991 7.0934 25.8057 18.7800 -29.1444 -4.9232 -0.0000 -0.0000 5.1950 18.2160 23.5016 7.4764 -7.1250 0.0000 -0.0000 -11.5882 54.2037 -2.6483 -0.0000 -0.0000 0.0000 83.4383 -5.3758 25.1245 -17.6529 27.7105 -4.3867 0.0000 0.0000 4.3784 -15.8880 9.8913 -2.7992 7.1250 -0.0000 -0.0000 7.9007 -19.7529 4.8112
15.5552 17.8133 -10.9222 2.4969 -51.2633 1.4799 0.0000 0.0000 0.0000 -23.3802 -6.6725 -6.2382 1.9786 8.8213 25.2379 0.7739 -0.6245 -16.4243 0.0196 -0.9048 -2.4868 0.0000 0.0000 0.0000 22.2892 5.0844 -10.2712 -3.2755 -11.1282 32.7134 -1.3802 1.2164 -21.8536 -0.0083 -0.5869 1.6126 -1.2129 -0.1202 6.9110 1.0826 -0.2161 -0.6139 1.8272 -0.0652 -4.5063 -9.2635 -3.4791 -21.3047 6.2938 -3.7215 25.6376 3.3195 -1.7924 12.3196 0.0000 0.0000 0.0000 -86.1788 7.1511 25.9246 18.7431 -29.0982 -4.9053 -0.0000 -0.0000 5.2258 17.5861 23.6074 7.2338 -7.1250 0.0000 -0.0000 -12.2726 54.1901 -2.8041 0.0000 0.0000 0.0000 83.5272 -5.4928 24.8753 -17.6014 27.6437 -4.3627 0.0000 0.0000 4.5278 -15.7417 10.1894 -2.8546 7.1250 -0.0000 -0.0000 7.9999 -19.4554 4.9265
15.5545 17.8015 -10.9184 2.4143 -51.3074 1.5455 0.0000 0.0000 0.0000 -23.3414 -7.0841 -6.0060 1.9724 8.8083 25.1973 0.7884 -0.6677 -16.5665 0.0013 0.2326 0.6391 0.0000 0.0000 0.0000 22.3272 5.0604 -10.3060 -3.2848 -11.1424 32.7617 -1.3867 1.2815 -21.8876 -0.0102 -0.6529 1.7941 -1.0604 -0.0842 6.8402 1.0440 -0.1567 -0.5755 1.6943 -0.0409 -4.4291 -9.1092 -3.5136 -21.3966 6.1454 -3.7801 25.7826 3.2288 -1.8236 12.3943 -0.0000 -0.0000 0.0000 -85.7615 6.7103 26.7205 18.4782 -28.7651 -4.7771 -0.0000 -0.0000 4.5232 17.3569 23.7845 7.1844 -7.1250 0.0000 -0.0000 -12.5846 54.3233 -2.9183 -0.0000 -0.0000 0.0000 83.5812 -5.6199 24.8714 -17.6181 27.6653 -4.3704 0.0000 0.0000 4.4716 -15.9515 10.2093 -2.9002 7.1250 -0.0000 -0.0000 7.8509 -19.4225 4.8388
15.5530 17.7882 -10.9167 2.2342 -51.3127 1.6530 0.0000 0.0000 0.0000 -23.2208 -7.3614 -5.8166 1.9712 8.8058 25.1898 0.7971 -0.7109 -16.6463 0.0228 0.9738 2.6767 0.0000 0.0000 0.0000 22.4628 5.0472 -10.2799 -3.2884 -11.1478 32.7800 -1.3863 1.2612 -21.8907 -0.0086 -0.5994 1.6471 -0.8665 -0.0627 6.8345 1.0170 -0.1135 -0.5298 1.5523 -0.0251 -4.3801 -9.0157 -3.5244 -21.4502 6.1721 -3.8339 25.8185 3.2148 -1.8342 12.4224 0.0000 0.0000 0.0000 -85.9280 7.1806 26.6194 18.7303 -29.0822 -4.8991 -0.0000 -0.0000 4.9035 17.2176 23.7234 7.1067 -7.1250 0.0000 -0.0000 -12.6974 54.2360 -2.9179 0.0000 0.0000 0.0000 83.7190 -5.7073 24.7669 -17.6271 27.6771 -4.3747 0.0000 0.0000 4.3338 -16.2112 9.9761 -2.8834 7.1250 -0.0000 -0.0000 7.6699 -19.6467 4.6864
15.5463 17.7980 -10.9131 2.2302 -51.3082 1.6273 0.0000 0.0000 0.0000 -23.2285 -6.9867 -5.9461 1.9757 8.8152 25.2190 0.7911 -0.5350 -16.6364 0.0013 -0.2297 -0.6311 0.0000 0.0000 0.0000 22.4784 5.0017 -10.2155 -3.2828 -11.1394 32.7513 -1.3846 1.2182 -21.8889 -0.0040 -0.4084 1.1223 -0.8314 -0.0534 6.8453 1.0046 -0.0990 -0.5002 1.5182 -0.0193 -4.3560 -9.0890 -3.5687 -21.4810 6.3028 -3.9080 25.8184 3.2652 -1.8565 12.4402 -0.0000 -0.0000 0.0000 -85.5675 6.7927 27.2729 18.5016 -28.7947 -4.7884 -0.0000 -0.0000 4.4378 16.7643 23.9059 6.9598 -7.1250 0.0000 -0.0000 -13.2391 54.3313 -3.0767 -0.0000 -0.0000 0.0000 83.8038 -5.7130 24.5866 -17.5402 27.5645 -4.3344 0.0000 0.0000 4.2984 -16.1478 9.7934 -2.8195 7.1250 -0.0000 -0.0000 7.7174 -19.8383 4.6827
